<svg id="Layer_1" data-name="Layer 1" xmlns="http://www.w3.org/2000/svg" width="3.89in" height="3.75in" viewBox="0 0 280.32 269.75"><title>Chat</title><path d="M323.85,134.38c-6.54-28.66-23.28-52.66-49.75-71.32-20.16-14.21-43.37-22.84-69-25.65-37.42-4.09-71.4,3.48-101,22.52C72.24,80.42,53.3,108.54,47.82,143.5a105.57,105.57,0,0,0,6.47,55.73,120.61,120.61,0,0,0,31,44.66,1.84,1.84,0,0,1,.33.8,69.14,69.14,0,0,1-1.74,9.94c-3.44,12.54-10.69,24.06-22.15,35.22-2.85,2.78-5.9,5.33-9.12,8-1.49,1.25-3,2.51-4.5,3.81h0a2.5,2.5,0,0,0,1.63,4.39H52.3a185.62,185.62,0,0,0,38.42-4.33c23.08-4.89,41.86-12.73,57.39-24a2.79,2.79,0,0,1,1.5-.08c23.47,5.38,46.59,5.77,68.72,1.17,34.88-7.26,62.84-23.84,83.09-49.28C324.19,201,331.74,169,323.85,134.38Zm-254,161.94-3.08.4a107.42,107.42,0,0,0,14.47-17c7.93-11.76,12.18-23.53,13-36a6.7,6.7,0,0,0-2.07-4.89c-10.63-9.92-18.07-19.13-23.4-29-19.45-36-18.5-71.68,2.83-106,15.07-24.26,38.29-41.73,69-51.93a144.43,144.43,0,0,1,45.6-7.25q7.43,0,15,.72c25.52,2.43,48.58,10.84,68.55,25,23.84,16.9,39.15,38.58,45.52,64.43,7.35,29.84,1.94,58-16.1,83.7s-44.14,42.8-77.74,51a147.13,147.13,0,0,1-70.53-.33,8.35,8.35,0,0,0-7.54,1.48c-14.81,10.92-32.64,18.37-54.51,22.77C82.62,294.68,76.14,295.52,69.86,296.32Z" transform="translate(-46.56 -36.33)" fill="#231f20"/></svg>