<svg id="Layer_1" data-name="Layer 1" xmlns="http://www.w3.org/2000/svg" width="5in" height="5in" viewBox="0 0 360 360"><title>Artboard 1</title><path d="M180,338.23c-84.79.14-159.88-68.47-158.13-162.52C23.4,91.05,93.93,20.47,182.7,21.79c84.52,1.26,155.67,69.62,155.5,159.12C338,268.12,266.55,338.63,180,338.23Zm113.77-72.66c42.39-54.68,39.17-138.46-17.4-190.48A142,142,0,0,0,75.21,83.66c-51.9,56.22-45.58,135.45-8.64,181.87.33-1.33.6-2.5.92-3.67,9.67-36.1,42.1-60.69,80.27-60.78q32.37-.08,64.74,0a80.39,80.39,0,0,1,26.78,4.19c24.34,8.57,41.33,24.9,50.77,48.95C291.46,257.84,292.46,261.62,293.73,265.56ZM180.19,217v0c-10.66,0-21.33-.1-32,0a84.73,84.73,0,0,0-13.41,1.09,66.28,66.28,0,0,0-54.12,59.14c-.27,3,0,5.51,2.73,7.38,1.57,1.07,2.84,2.57,4.32,3.78,36.39,29.94,77.68,40.4,123.8,30.55,24.52-5.24,45.94-16.8,64.59-33.6a8.73,8.73,0,0,0,3.21-8.32,66,66,0,0,0-64.14-60C203.52,216.75,191.86,217,180.19,217Z"/><path d="M180.07,72.21c31.46.07,57.75,24.69,57.9,58.62.14,31.52-26.45,57.52-58.59,57.14-31.2-.37-58-24.83-57.16-60.24C123,97.7,147.72,72.38,180.07,72.21Zm0,15.77a42.15,42.15,0,0,0,.1,84.29c23.12.18,42.2-19.27,42.05-42.24A42.17,42.17,0,0,0,180.09,88Z"/></svg>