<svg id="Layer_1" data-name="Layer 1" xmlns="http://www.w3.org/2000/svg" width="2.96in" height="2.96in" viewBox="0 0 213.26 213.23"><title>Settings</title><path d="M92.33,117.47l25.05-25.13c4.91,3.38,10,6.82,15,10.39,1.29.92,2.17.77,3.55.17q10.27-4.46,20.7-8.55c1.39-.55,2.15-1.05,2.4-2.65.86-5.42,2-10.8,2.85-16.23.25-1.53.71-2.1,2.33-2.09q15.75.1,31.49,0c1.61,0,2.11.53,2.36,2.07.88,5.5,1.87,11,3,16.45a3.81,3.81,0,0,0,2,2.25c7,3,14.11,5.83,21.11,8.87a2.92,2.92,0,0,0,3.34-.28c5-3.55,10.11-7,15-10.38l25.07,25.13c-3.37,4.85-6.83,9.93-10.42,14.93-.92,1.28-.77,2.16-.16,3.54q4.43,10.14,8.49,20.45c.62,1.58,1.23,2.39,3,2.66,5.34.81,10.64,1.94,16,2.79,1.53.24,2.11.69,2.1,2.31q-.1,15.87,0,31.74c0,1.47-.48,2-1.93,2.19-5.51.87-11,2-16.48,2.87a2.64,2.64,0,0,0-2.5,2.24A79.56,79.56,0,0,1,257,224.12a2.75,2.75,0,0,0,.26,3.53c3.54,4.94,7,10,10.21,14.63L242.37,267.5c-4.39-3-9.3-6.26-14-9.75-1.83-1.35-3.08-1.15-5.07-.26-6.5,2.93-13.14,5.53-19.79,8.11-1.46.57-2.3,1.08-2.56,2.8-.83,5.43-2,10.81-2.85,16.22-.23,1.4-.64,2-2.17,2q-15.87-.09-31.74,0c-1.45,0-2-.44-2.23-1.91-.89-5.5-2-11-2.9-16.47a2.62,2.62,0,0,0-2.23-2.5A77.5,77.5,0,0,1,135.67,257a2.45,2.45,0,0,0-3.12.2c-5,3.55-10.12,7-15,10.37L92.49,242.32c3.12-4.49,6.5-9.51,10.05-14.4,1.1-1.51.94-2.53.2-4.18-3-6.66-5.7-13.44-8.36-20.23-.58-1.47-1.12-2.29-2.81-2.55-5.43-.84-10.81-2-16.23-2.83-1.41-.23-2-.64-2-2.16q.09-16,0-32c0-1.35.44-1.83,1.8-2.05,5.5-.89,11-2,16.48-2.87a2.76,2.76,0,0,0,2.64-2.39,76.84,76.84,0,0,1,8.6-20.66,2.9,2.9,0,0,0-.26-3.74C99.09,127.32,95.68,122.29,92.33,117.47ZM179.82,238c32,0,58.13-25.89,58.18-57.6A58,58,0,1,0,179.82,238Z" transform="translate(-73.37 -73.38)"/></svg>