<?xml version="1.0" encoding="utf-8"?>
<!-- Generator: Adobe Illustrator 22.0.1, SVG Export Plug-In . SVG Version: 6.00 Build 0)  -->
<svg version="1.1" id="Layer_1" xmlns="http://www.w3.org/2000/svg" xmlns:xlink="http://www.w3.org/1999/xlink" x="0px" y="0px"
	 viewBox="0 0 271.1 67" style="enable-background:new 0 0 271.1 67;" xml:space="preserve">
<style type="text/css">
	.st0{fill:#4E77EA;}
	.st1{fill:#2D487F;}
</style>
<g>
	<g>
		<g>
			<path class="st0" d="M27.8,20.8v-1.5c0-3.2-1.3-3.5-5.9-3.5c-5.4,0-6.3,0.9-6.3,6.4v6.2c0,5.6,0.7,6.6,6.3,6.6
				c4.3,0,6.2-0.1,6.2-4.1v-1.5h5.3v1.8c0.1,8.4-4.7,8.1-11.6,8.4c-9.8,0.4-11.6-2.9-11.7-11v-6.4c0-8.9,3.5-10.9,11.7-10.9
				c6.9,0,10.9,0,11.3,8v1.5H27.8z"/>
			<path class="st0" d="M58.4,22v-0.6c0-8.9-3.9-10.2-11.9-10.2c-8.8,0-11.8,1.5-11.8,10.2V29c0,9.1,3.2,10.6,11.8,10.6
				c8.4,0,11.9-1.7,11.9-10.6v-1.5h-5.3V29c0,5.4-1.7,6.1-6.5,6.1c-5.3,0-6.4-0.5-6.4-6.1v-7.5c0.1-4.4,0.7-5.6,6.4-5.6
				c4.8,0,6.7,0.4,6.5,5.6V22H58.4z"/>
			<path class="st0" d="M71.8,11.3C63,11.3,60,12.8,60,21.5V22h5.3v-0.6c0.1-4.4,0.7-5.6,6.4-5.6c4.8,0,6.7,0.4,6.5,5.6V29
				c0,5.4-1.7,6.1-6.5,6.1c-5.3,0-6.4-0.5-6.4-6.1v-1.5H60V29c0,9.1,3.2,10.6,11.8,10.6c8.4,0,11.9-1.7,11.9-10.6v-7.5
				C83.7,12.5,79.8,11.3,71.8,11.3z"/>
			<path class="st0" d="M85.9,11.5h12.3c7.5,0,9.9,1.8,9.9,9.6c0,7.9-2.6,9.2-9.9,9.2h-7v9h-5.3V11.5z M98.2,25.8
				c3.8-0.1,4.6-0.8,4.6-4.7c0-3.9-0.6-5.1-4.6-5h-7v9.7H98.2z"/>
			<path class="st0" d="M115.4,23h13v4.4h-13v7.4h13.9v4.6h-19.2V11.5h19.1v4.6h-13.7V23z"/>
			<path class="st0" d="M137.3,30.2v9.2H132V11.5h14.2c6.1,0.1,8.4,2,8.4,8.4c0,4.1-0.2,7.1-4.9,7.8v0.1c3.8,0.3,4.7,2.4,4.7,6.3
				v5.2H149v-5.2c0-2.3-1-4-3.5-4H137.3z M144.4,25.6c3.9,0,4.9-0.8,4.9-4.9c0-3.9-0.7-4.6-4.5-4.6h-7.4v9.5H144.4z"/>
			<path class="st0" d="M162.4,34.1l-1.7,5.3h-5.5l9.2-27.9h7.9l9.4,27.9h-5.4l-1.8-5.3H162.4z M168.4,15.6L168.4,15.6L163.6,30h9.6
				L168.4,15.6z"/>
			<path class="st0" d="M191.5,39.4h-5.3V16.1H178v-4.6h21.7v4.6h-8.2V39.4z"/>
			<path class="st0" d="M206.2,39.4h-5.3V11.5h5.3V39.4z"/>
			<path class="st0" d="M232.5,21.5V29c0,8.9-3.5,10.6-11.9,10.6c-8.6,0-11.8-1.5-11.8-10.6v-7.5c0-8.7,2.9-10.2,11.8-10.2
				C228.6,11.3,232.5,12.5,232.5,21.5z M214.2,21.5V29c0,5.5,1.1,6.1,6.4,6.1c4.9,0,6.5-0.7,6.5-6.1v-7.5c0.1-5.2-1.8-5.6-6.5-5.6
				C214.9,15.9,214.3,17.1,214.2,21.5z"/>
			<path class="st0" d="M255.6,11.5h5.3v27.9H252l-11.8-23.3H240l0.4,23.3h-5.3V11.5h8.8l11.9,23.3h0.1L255.6,11.5z"/>
		</g>
	</g>
	<g>
		<g>
			<path class="st1" d="M14.4,50.2h4.9v0.9h-4.9v3.6h5.2v1h-6.3v-9.8h6.3v1h-5.2V50.2z"/>
			<path class="st1" d="M26.7,53.6l-0.8,2.1h-1.2l3.6-9.8h1.6l3.6,9.8h-1.1l-0.8-2.1H26.7z M29.1,46.8L27,52.7h4.3L29.1,46.8z"/>
			<path class="st1" d="M38.7,48.7c0-2.6,1.2-2.8,3.6-2.8c2.1,0,3.6,0.1,3.5,2.7h-1.1c-0.1-1.7-0.4-1.8-2.4-1.8
				c-2.2,0-2.5,0.3-2.5,1.6c0,1.9,0.9,1.7,2.7,1.8c2.3,0.1,3.5,0.1,3.5,2.7c0,2.8-1.3,2.8-3.8,2.8c-2.5,0-3.8-0.3-3.6-3.1h1.1
				c0,2.1,0.4,2.1,2.5,2.1c2.1,0,2.7,0,2.7-1.9c0-1.9-0.8-1.5-2.6-1.7C40.3,51,38.7,51.2,38.7,48.7z"/>
			<path class="st1" d="M53.1,55.7H52v-9.8h1.1V55.7z"/>
			<path class="st1" d="M67.9,55.7h-1.8l-5.5-8.8h0v8.8h-1.1v-9.8h1.8l5.5,8.9h0v-8.9h1.1V55.7z"/>
			<path class="st1" d="M82,50.8v2.1c0,2.3-1,2.8-3.2,2.8h-1.1c-2.6,0-3.7-0.5-3.7-3.5v-3c0-2.6,1.2-3.4,2.9-3.4h2.6
				c1.5,0,2.6,0.6,2.6,2.2v0.8h-1.1v-0.6c0-1.1-0.4-1.4-2-1.4h-1.4c-2.1,0-2.4,0.4-2.4,2.6v3.1c0,1.9,0.6,2.3,2.4,2.3h1
				c1.9,0,2.4-0.2,2.4-1.8v-1.2h-3.1v-1H82z"/>
			<path class="st1" d="M100.5,55.7h-1.1v-8.8h-3.2v-1h7.4v1h-3.2V55.7z"/>
			<path class="st1" d="M117.2,55.7h-1.1v-4.5h-5.7v4.5h-1.1v-9.8h1.1v4.3h5.7v-4.3h1.1V55.7z"/>
			<path class="st1" d="M124.3,50.2h4.9v0.9h-4.9v3.6h5.2v1h-6.3v-9.8h6.3v1h-5.2V50.2z"/>
			<path class="st1" d="M148,55.7h-1.1v-8.8h-3.2v-1h7.4v1H148V55.7z"/>
			<path class="st1" d="M157.9,55.7h-1.1v-9.8h4.5c2.1,0,3,0.6,3,2.8c0,1.4-0.2,2.4-1.7,2.6v0c1.1,0.1,1.6,0.7,1.6,1.8v2.6H163v-2.1
				c0-1.2-0.3-1.8-1.6-1.8h-3.6V55.7z M161.3,50.8c1.7-0.1,1.9-0.6,1.9-2.2c0-1.2-0.2-1.7-1.9-1.7h-3.4v3.9H161.3z"/>
			<path class="st1" d="M171.6,53.6l-0.8,2.1h-1.2l3.6-9.8h1.6l3.6,9.8h-1.1l-0.8-2.1H171.6z M174,46.8l-2.1,5.9h4.3L174,46.8z"/>
			<path class="st1" d="M192.4,55.7h-1.8l-5.5-8.8h0v8.8H184v-9.8h1.8l5.5,8.9h0v-8.9h1.1V55.7z"/>
			<path class="st1" d="M198.4,48.7c0-2.6,1.2-2.8,3.6-2.8c2.1,0,3.6,0.1,3.5,2.7h-1.1c-0.1-1.7-0.4-1.8-2.4-1.8
				c-2.2,0-2.5,0.3-2.5,1.6c0,1.9,0.9,1.7,2.7,1.8c2.3,0.1,3.5,0.1,3.5,2.7c0,2.8-1.3,2.8-3.8,2.8c-2.5,0-3.8-0.3-3.6-3.1h1.1
				c0,2.1,0.4,2.1,2.5,2.1c2.1,0,2.7,0,2.7-1.9c0-1.9-0.8-1.5-2.6-1.7C200,51,198.4,51.2,198.4,48.7z"/>
			<path class="st1" d="M212.8,55.7h-1.1v-9.8h1.1V55.7z"/>
			<path class="st1" d="M222.6,55.7h-1.1v-8.8h-3.2v-1h7.4v1h-3.2V55.7z"/>
			<path class="st1" d="M232.5,55.7h-1.1v-9.8h1.1V55.7z"/>
			<path class="st1" d="M243.1,45.8c2.4,0,3.2,0.8,3.2,3.3v3.5c0,2.3-0.8,3.2-3.2,3.2h-1.3c-2.3,0-3.2-0.9-3.2-3.2v-3.5
				c0-2.4,0.7-3.3,3.2-3.3H243.1z M241.7,46.8c-1.6,0-2.1,0.4-2.1,2.3v3.5c0,1.9,0.6,2.2,2.1,2.2h1.3c1.4,0,2.1-0.2,2.1-2.2v-3.5
				c0-1.9-0.4-2.3-2.1-2.3H241.7z"/>
			<path class="st1" d="M260.7,55.7h-1.8l-5.5-8.8h0v8.8h-1.1v-9.8h1.8l5.5,8.9h0v-8.9h1.1V55.7z"/>
		</g>
	</g>
	<path class="st1" d="M70.3,24.5V25c0,0.8-0.6,1.4-1.4,1.4H49.6c-0.8,0-1.4-0.6-1.4-1.4v-0.4c0-0.8,0.6-1.4,1.4-1.4h19.4
		C69.7,23.1,70.3,23.8,70.3,24.5z"/>
</g>
</svg>
